<svg width="540" height="148" viewBox="0 0 540 148" fill="none" xmlns="http://www.w3.org/2000/svg">
<path d="M6.46447 70.4645C4.51184 72.4171 4.51184 75.5829 6.46447 77.5355L38.2843 109.355C40.2369 111.308 43.4027 111.308 45.3553 109.355C47.308 107.403 47.308 104.237 45.3553 102.284L17.0711 74L45.3553 45.7157C47.308 43.7631 47.308 40.5973 45.3553 38.6447C43.4027 36.692 40.2369 36.692 38.2843 38.6447L6.46447 70.4645ZM10 79H20.1923V69H10V79ZM40.5769 79H60.9615V69H40.5769V79ZM81.3462 79H101.731V69H81.3462V79ZM122.115 79H142.5V69H122.115V79ZM162.885 79H183.269V69H162.885V79ZM203.654 79H224.038V69H203.654V79ZM244.423 79H264.808V69H244.423V79ZM285.192 79H305.577V69H285.192V79ZM325.962 79H346.346V69H325.962V79ZM366.731 79H387.115V69H366.731V79ZM407.5 79H427.885V69H407.5V79ZM448.269 79H468.654V69H448.269V79ZM489.038 79H509.423V69H489.038V79ZM529.808 79H540V69H529.808V79ZM2.92893 66.9289C-0.976311 70.8342 -0.976311 77.1658 2.92893 81.0711L66.5685 144.711C70.4738 148.616 76.8054 148.616 80.7107 144.711C84.6159 140.805 84.6159 134.474 80.7107 130.569L24.1421 74L80.7107 17.4315C84.6159 13.5262 84.6159 7.19456 80.7107 3.28932C76.8054 -0.615921 70.4738 -0.615921 66.5685 3.28932L2.92893 66.9289ZM10 84H20.1923V64H10V84ZM40.5769 84H60.9615V64H40.5769V84ZM81.3462 84H101.731V64H81.3462V84ZM122.115 84H142.5V64H122.115V84ZM162.885 84H183.269V64H162.885V84ZM203.654 84H224.038V64H203.654V84ZM244.423 84H264.808V64H244.423V84ZM285.192 84H305.577V64H285.192V84ZM325.962 84H346.346V64H325.962V84ZM366.731 84H387.115V64H366.731V84ZM407.5 84H427.885V64H407.5V84ZM448.269 84H468.654V64H448.269V84ZM489.038 84H509.423V64H489.038V84ZM529.808 84H540V64H529.808V84Z" fill="#FEFEFE"/>
</svg>
