<svg width="540" height="148" viewBox="0 0 540 148" fill="none" xmlns="http://www.w3.org/2000/svg">
<path d="M533.536 70.4645C535.488 72.4171 535.488 75.5829 533.536 77.5355L501.716 109.355C499.763 111.308 496.597 111.308 494.645 109.355C492.692 107.403 492.692 104.237 494.645 102.284L522.929 74L494.645 45.7157C492.692 43.7631 492.692 40.5973 494.645 38.6447C496.597 36.692 499.763 36.692 501.716 38.6447L533.536 70.4645ZM530 79H519.808V69H530V79ZM499.423 79H479.038V69H499.423V79ZM458.654 79H438.269V69H458.654V79ZM417.885 79H397.5V69H417.885V79ZM377.115 79H356.731V69H377.115V79ZM336.346 79H315.962V69H336.346V79ZM295.577 79H275.192V69H295.577V79ZM254.808 79H234.423V69H254.808V79ZM214.038 79H193.654V69H214.038V79ZM173.269 79H152.885V69H173.269V79ZM132.5 79H112.115V69H132.5V79ZM91.7308 79H71.3462V69H91.7308V79ZM50.9616 79H30.577V69H50.9616V79ZM10.1923 79H0V69H10.1923V79ZM537.071 66.9289C540.976 70.8342 540.976 77.1658 537.071 81.0711L473.431 144.711C469.526 148.616 463.195 148.616 459.289 144.711C455.384 140.805 455.384 134.474 459.289 130.569L515.858 74L459.289 17.4315C455.384 13.5262 455.384 7.19456 459.289 3.28932C463.195 -0.615921 469.526 -0.615921 473.431 3.28932L537.071 66.9289ZM530 84H519.808V64H530V84ZM499.423 84H479.038V64H499.423V84ZM458.654 84H438.269V64H458.654V84ZM417.885 84H397.5V64H417.885V84ZM377.115 84H356.731V64H377.115V84ZM336.346 84H315.962V64H336.346V84ZM295.577 84H275.192V64H295.577V84ZM254.808 84H234.423V64H254.808V84ZM214.038 84H193.654V64H214.038V84ZM173.269 84H152.885V64H173.269V84ZM132.5 84H112.115V64H132.5V84ZM91.7308 84H71.3462V64H91.7308V84ZM50.9616 84H30.577V64H50.9616V84ZM10.1923 84H0V64H10.1923V84Z" fill="#FEFEFE"/>
</svg>
