<svg width="150" height="150" viewBox="0 0 150 150" fill="none" xmlns="http://www.w3.org/2000/svg">
<path d="M104.498 67.5C94.8214 67.5 93.4821 77.1429 93.4821 77.1429H114.04C114.04 77.1429 114.174 67.5 104.498 67.5Z" fill="black"/>
<path d="M57.8571 77.1429H39.6429V93.8839H56.9531C59.5647 93.817 64.4531 93.0804 64.4531 85.7478C64.4531 77.0424 57.8571 77.1429 57.8571 77.1429Z" fill="black"/>
<path d="M75 0C33.5826 0 0 33.5826 0 75C0 116.417 33.5826 150 75 150C116.417 150 150 116.417 150 75C150 33.5826 116.417 0 75 0ZM90.8036 46.0714H116.618V53.7723H90.8036V46.0714ZM77.7455 86.5179C77.7455 105.603 57.8571 105 57.8571 105H25.3125V42.3884H57.8571C67.7679 42.3884 75.5692 47.846 75.5692 59.0625C75.5692 70.279 66.0268 70.9821 66.0268 70.9821C78.6161 70.9821 77.7455 86.5179 77.7455 86.5179ZM126.027 85.4799H93.5826C93.5826 97.0982 104.598 96.3616 104.598 96.3616C115.011 96.3616 114.643 89.6317 114.643 89.6317H125.658C125.658 107.511 104.23 106.272 104.23 106.272C78.5491 106.272 80.1897 82.3326 80.1897 82.3326C80.1897 82.3326 80.1562 58.2924 104.23 58.2924C129.576 58.3259 126.027 85.4799 126.027 85.4799Z" fill="black"/>
<path d="M62.2768 60.0336C62.2768 53.5381 57.8571 53.5381 57.8571 53.5381H39.6429V67.5001H56.7187C59.6652 67.5001 62.2768 66.5292 62.2768 60.0336Z" fill="black"/>
</svg>
