<svg width="150" height="150" viewBox="0 0 150 150" fill="none" xmlns="http://www.w3.org/2000/svg">
<path d="M75 0C33.5781 0 0 33.5781 0 75C0 116.422 33.5781 150 75 150C116.422 150 150 116.422 150 75C150 33.5781 116.422 0 75 0ZM56.6406 106.086H41.4531V57.2109H56.6406V106.086ZM48.9531 51.2109C44.1562 51.2109 41.0547 47.8125 41.0547 43.6094C41.0547 39.3203 44.25 36.0234 49.1484 36.0234C54.0469 36.0234 57.0469 39.3203 57.1406 43.6094C57.1406 47.8125 54.0469 51.2109 48.9531 51.2109ZM112.109 106.086H96.9219V79C96.9219 72.6953 94.7188 68.4141 89.2266 68.4141C85.0312 68.4141 82.5391 71.3125 81.4375 74.1016C81.0312 75.0938 80.9297 76.5 80.9297 77.8984V106.078H65.7344V72.7969C65.7344 66.6953 65.5391 61.5937 65.3359 57.2031H78.5312L79.2266 63.9922H79.5312C81.5312 60.8047 86.4297 56.1016 94.625 56.1016C104.617 56.1016 112.109 62.7969 112.109 77.1875V106.086Z" fill="black"/>
</svg>
